<svg id="Layer_1" data-name="Layer 1" xmlns="http://www.w3.org/2000/svg" viewBox="0 0 24 24">
  <path fill="#898ca1" d="M15,19H8V12.37a5.991,5.991,0,0,0,2.77-1.99C11.6,9.47,12.08,9,13,9h2ZM10,2.02A4.724,4.724,0,0,0,5.73,4.73,3.976,3.976,0,0,0,6,12.36V21H17V19h2a2.006,2.006,0,0,0,2-2V11a2.006,2.006,0,0,0-2-2H17.44A3.906,3.906,0,0,0,18,7a3.972,3.972,0,0,0-4.98-3.87A4.707,4.707,0,0,0,10,2.02ZM7,10.5a1.989,1.989,0,0,1-.63-3.88l.8-.27.36-.76A2.728,2.728,0,0,1,10,4.02a2.687,2.687,0,0,1,1.74.65l.78.65A3.621,3.621,0,0,1,13.99,5a2.006,2.006,0,0,1,2,2h-3C9.67,7,9.15,10.5,7,10.5ZM17,17V11h2v6Z"/>
</svg>
